<svg viewBox="0 0 512 512" xmlns="http://www.w3.org/2000/svg"><path d="m512 256c0 141.386719-114.613281 256-256 256s-256-114.613281-256-256 114.613281-256 256-256 256 114.613281 256 256zm0 0" fill="#f92814"/><path d="m512 256c0-10.3125-.628906-20.476562-1.8125-30.46875l-141.726562-141.726562-266.976563 308.425781 117.03125 117.03125c12.234375 1.792969 24.75 2.738281 37.484375 2.738281 141.386719 0 256-114.613281 256-256zm0 0" fill="#db0404"/><path d="m410.515625 392.230469-.949219.949219c-12.203125 12.203124-31.988281 12.203124-44.1875 0l-50.195312-50.191407c-12.203125-12.203125-12.203125-31.984375 0-44.1875l.949218-.949219c12.203126-12.203124 31.988282-12.203124 44.1875 0l50.195313 50.191407c12.203125 12.203125 12.203125 31.984375 0 44.1875zm0 0" fill="#555a66"/><path d="m410.515625 392.230469c12.203125-12.203125 12.203125-31.984375 0-44.1875l-50.195313-50.191407c-12.199218-12.203124-31.984374-12.203124-44.1875 0l-.949218.949219c-.140625.140625-.273438.285157-.410156.429688l94.363281 94.359375c.140625-.136719.289062-.269532.425781-.410156zm0 0" fill="#414952"/><path d="m340.050781 280.316406-42.402343 42.402344-165.507813-165.507812 11.398437-73.40625zm0 0" fill="#dce1eb"/><path d="m340.050781 280.316406-196.511719-196.511718-5.9375 38.25 180.355469 180.355468zm0 0" fill="#cdd2e1"/><path d="m385.078125 279.058594-88.6875 88.6875c-20.070313-20.070313-20.070313-52.609375 0-72.683594l16.007813-16.003906c20.070312-20.070313 52.609374-20.070313 72.679687 0zm0 0" fill="#414952"/><path d="m385.078125 279.058594c-20.070313-20.070313-52.609375-20.070313-72.679687 0l-8.898438 8.894531 36.34375 36.34375zm0 0" fill="#23272b"/><path d="m101.484375 392.230469.949219.949219c12.203125 12.203124 31.988281 12.203124 44.1875 0l50.195312-50.191407c12.203125-12.203125 12.203125-31.984375 0-44.1875l-.949218-.949219c-12.203126-12.203124-31.988282-12.203124-44.1875 0l-50.195313 50.191407c-12.203125 12.203125-12.203125 31.984375 0 44.1875zm0 0" fill="#555a66"/><path d="m195.867188 297.851562c-12.203126-12.203124-31.988282-12.203124-44.1875 0l-50.195313 50.191407c-12.203125 12.203125-12.203125 31.984375 0 44.1875l.371094.371093 94.378906-94.382812zm0 0" fill="#414952"/><path d="m171.949219 280.316406 42.402343 42.402344 165.507813-165.507812-11.398437-73.40625zm0 0" fill="#fff"/><path d="m368.460938 83.804688-196.511719 196.511718 21.09375 21.09375 181.089843-181.085937zm0 0" fill="#dce1eb"/><path d="m126.921875 279.058594 88.6875 88.6875c20.070313-20.070313 20.070313-52.609375 0-72.683594l-16.007813-16.003906c-20.070312-20.070313-52.609374-20.070313-72.679687 0zm0 0" fill="#414952"/><path d="m199.601562 279.058594c-20.070312-20.070313-52.609374-20.070313-72.679687 0l44.234375 44.238281 36.34375-36.34375zm0 0" fill="#23272b"/></svg>