<?xml version="1.0" encoding="iso-8859-1"?>
<!-- Generator: Adobe Illustrator 19.0.0, SVG Export Plug-In . SVG Version: 6.00 Build 0)  -->
<svg version="1.1" id="Capa_1" xmlns="http://www.w3.org/2000/svg" xmlns:xlink="http://www.w3.org/1999/xlink" x="0px" y="0px"
	 viewBox="0 0 384 384" style="enable-background:new 0 0 384 384;" xml:space="preserve">
<circle style="fill:#EFC84A;" cx="192" cy="192" r="192"/>
<path style="opacity:0.1;enable-background:new    ;" d="M384,192c0-9.077-0.675-17.992-1.894-26.734L300.6,83.76
	c-0.032-0.036-0.075-0.063-0.108-0.098c-0.068-0.071-0.142-0.128-0.214-0.194c-0.44-0.417-0.941-0.771-1.51-1.018
	c-0.05-0.022-0.103-0.031-0.154-0.051C297.998,82.153,297.335,82,296.64,82H87.36C84.4,82,82,84.4,82,87.36v209.28
	c0,0.71,0.149,1.387,0.406,2.01c0.137,0.338,0.374,0.605,0.574,0.904c0.16,0.239,0.268,0.516,0.461,0.726l0.089,0.089
	c0.034,0.035,0.067,0.068,0.102,0.102l0.129,0.129l81.506,81.506C174.008,383.325,182.923,384,192,384
	C298.039,384,384,298.039,384,192z"/>
<path style="fill:#FFFFFF;" d="M87.346,82h209.308c2.953,0,5.347,2.394,5.347,5.346v209.308c0,2.952-2.394,5.346-5.347,5.346H87.346
	c-2.952,0-5.346-2.394-5.346-5.346V87.346C82,84.394,84.394,82,87.346,82z"/>
<path style="fill:#64798A;" d="M87.346,82h209.308c2.953,0,5.347,2.394,5.347,5.346v31.274H82V87.346C82,84.394,84.394,82,87.346,82
	z"/>
<rect x="155.72" y="94.288" style="fill:#EBF0F3;" width="137.828" height="12.08"/>
<circle style="fill:#FCD462;" cx="138.468" cy="100.32" r="6.04"/>
<circle style="fill:#44C4A1;" cx="116.92" cy="100.32" r="6.04"/>
<circle style="fill:#E56353;" cx="95.412" cy="100.32" r="6.04"/>
<g>
	<rect x="94.308" y="134.412" style="fill:#64798A;" width="18.588" height="4"/>
	<rect x="94.308" y="158.4" style="fill:#64798A;" width="18.588" height="4"/>
	<rect x="230.2" y="158.4" style="fill:#64798A;" width="18.588" height="4"/>
	<rect x="94.308" y="182.36" style="fill:#64798A;" width="18.588" height="4"/>
</g>
<rect x="206.08" y="182.36" style="fill:#E56353;" width="18.588" height="4"/>
<rect x="248.8" y="182.36" style="fill:#27A2DB;" width="18.588" height="4"/>
<g>
	<rect x="94.308" y="206.36" style="fill:#64798A;" width="18.588" height="4"/>
	<rect x="94.308" y="230.32" style="fill:#64798A;" width="18.588" height="4"/>
	<rect x="94.308" y="254.28" style="fill:#64798A;" width="18.588" height="4"/>
	<rect x="94.308" y="278.28" style="fill:#64798A;" width="18.588" height="4"/>
</g>
<rect x="206.08" y="278.28" style="fill:#E56353;" width="18.588" height="4"/>
<rect x="251.828" y="278.28" style="fill:#FCD462;" width="18.588" height="4"/>
<rect x="135.216" y="134.412" style="fill:#E56353;" width="18.588" height="4"/>
<rect x="173.4" y="134.412" style="fill:#64798A;" width="18.588" height="4"/>
<g>
	<rect x="211.616" y="134.412" style="fill:#44C4A1;" width="18.584" height="4"/>
	<rect x="153.8" y="158.4" style="fill:#44C4A1;" width="48.648" height="4"/>
</g>
<rect x="135.216" y="182.36" style="fill:#64798A;" width="54.04" height="4"/>
<rect x="152.96" y="206.36" style="fill:#44C4A1;" width="18.588" height="4"/>
<rect x="189.24" y="206.36" style="fill:#DC8744;" width="55.956" height="4"/>
<rect x="135.216" y="230.32" style="fill:#E56353;" width="18.588" height="4"/>
<rect x="173.4" y="230.32" style="fill:#64798A;" width="18.588" height="4"/>
<rect x="211.616" y="230.32" style="fill:#FCD462;" width="55.756" height="4"/>
<g>
	<rect x="135.216" y="254.28" style="fill:#64798A;" width="18.588" height="4"/>
	<rect x="258.08" y="254.28" style="fill:#64798A;" width="18.588" height="4"/>
</g>
<rect x="173.4" y="254.28" style="fill:#27A2DB;" width="61.764" height="4"/>
<rect x="135.216" y="278.28" style="fill:#DC8744;" width="54.04" height="4"/>
<g>
</g>
<g>
</g>
<g>
</g>
<g>
</g>
<g>
</g>
<g>
</g>
<g>
</g>
<g>
</g>
<g>
</g>
<g>
</g>
<g>
</g>
<g>
</g>
<g>
</g>
<g>
</g>
<g>
</g>
</svg>
